<svg xmlns="http://www.w3.org/2000/svg" viewBox="0 0 128 128" width="128" height="128">
  <defs>
    <linearGradient id="bgGrad" x1="0%" y1="0%" x2="100%" y2="100%">
      <stop offset="0%" style="stop-color:#07c160"/>
      <stop offset="100%" style="stop-color:#06ad56"/>
    </linearGradient>
  </defs>
  <rect width="128" height="128" rx="24" fill="url(#bgGrad)"/>
  <g fill="white">
    <!-- Chat bubble -->
    <path d="M64 28c-22 0-40 14-40 32 0 10 6 19 15 25l-4 12 14-7c5 2 10 2 15 2 22 0 40-14 40-32S86 28 64 28z"/>
    <!-- AI sparkle -->
    <circle cx="90" cy="38" r="4" fill="#FFD700"/>
    <path d="M90 30v16M82 38h16" stroke="#FFD700" stroke-width="2"/>
  </g>
  <g fill="#07c160">
    <!-- Eyes -->
    <circle cx="50" cy="56" r="4"/>
    <circle cx="70" cy="56" r="4"/>
    <!-- Smile -->
    <path d="M52 66q12 8 24 0" fill="none" stroke="#07c160" stroke-width="3" stroke-linecap="round"/>
  </g>
</svg>
